<?xml version="1.0" encoding="UTF-8"?>
<svg width="100" height="100" viewBox="0 0 100 100" xmlns="http://www.w3.org/2000/svg">
    <polygon points="91.56921938165306,74 50,98 8.430780618346951,74.00000000000001 8.430780618346937,26.000000000000014 49.99999999999999,2 91.56921938165306,26.000000000000014" fill="#4ADE80" />
    <polygon points="84.08675989295551,69.67999999999999 50,89.36 15.913240107044501,69.68 15.913240107044487,30.32000000000001 49.99999999999999,10.64 84.08675989295551,30.320000000000014" fill="hsl(132.14285714285714, 68.21428571428571%, 57.5%)" />
    <polygon points="76.60430040425796,65.36 50,80.72 23.395699595742048,65.36000000000001 23.395699595742038,34.64000000000001 49.99999999999999,19.279999999999998 76.60430040425797,34.64000000000001" fill="hsl(124.28571428571429, 66.42857142857143%, 55%)" />
    <polygon points="69.12184091556041,61.04 50,72.08 30.878159084439595,61.040000000000006 30.878159084439588,38.96000000000001 49.99999999999999,27.919999999999998 69.12184091556041,38.96000000000001" fill="hsl(116.42857142857143, 64.64285714285714%, 52.5%)" />
    <polygon points="61.639381426862855,56.72 50,63.44 38.360618573137145,56.720000000000006 38.360618573137145,43.28 50,36.56 61.639381426862855,43.28" fill="hsl(108.57142857142857, 62.85714285714286%, 50%)" />
    
</svg>