<?xml version="1.0" encoding="UTF-8"?>
<svg width="100" height="100" viewBox="0 0 100 100" xmlns="http://www.w3.org/2000/svg">
    <polygon points="91.56921938165306,74 50,98 8.430780618346951,74.00000000000001 8.430780618346937,26.000000000000014 49.99999999999999,2 91.56921938165306,26.000000000000014" fill="#4ADE80" />
    <polygon points="85.3338364744051,70.39999999999999 50,90.8 14.66616352559491,70.4 14.666163525594897,29.600000000000012 49.99999999999999,9.200000000000003 85.3338364744051,29.600000000000016" fill="hsl(132.14285714285714, 68.21428571428571%, 57.5%)" />
    <polygon points="79.09845356715714,66.8 50,83.6 20.901546432842867,66.80000000000001 20.901546432842853,33.20000000000001 49.99999999999999,16.4 79.09845356715715,33.20000000000001" fill="hsl(124.28571428571429, 66.42857142857143%, 55%)" />
    <polygon points="72.86307065990918,63.2 50,76.4 27.136929340090823,63.20000000000001 27.136929340090813,36.800000000000004 49.99999999999999,23.599999999999998 72.86307065990918,36.80000000000001" fill="hsl(116.42857142857143, 64.64285714285714%, 52.5%)" />
    <polygon points="66.62768775266122,59.6 50,69.2 33.37231224733878,59.60000000000001 33.37231224733877,40.400000000000006 50,30.799999999999997 66.62768775266123,40.400000000000006" fill="hsl(108.57142857142857, 62.85714285714286%, 50%)" />
    <polygon points="60.392304845413264,56 50,62 39.607695154586736,56 39.607695154586736,44 50,38 60.392304845413264,44" fill="hsl(100.71428571428572, 61.07142857142857%, 47.5%)" />
    
</svg>