<?xml version="1.0" encoding="UTF-8"?>
<svg width="100" height="100" viewBox="0 0 100 100" xmlns="http://www.w3.org/2000/svg">
    <polygon points="91.56921938165306,74 50,98 8.430780618346951,74.00000000000001 8.430780618346937,26.000000000000014 49.99999999999999,2 91.56921938165306,26.000000000000014" fill="#4ADE80" />
    <polygon points="86.22460546115482,70.91428571428571 50,91.82857142857144 13.775394538845198,70.91428571428574 13.775394538845184,29.085714285714293 49.99999999999999,8.171428571428564 86.22460546115482,29.085714285714296" fill="hsl(132.14285714285714, 68.21428571428571%, 57.5%)" />
    <polygon points="80.87999154065656,67.82857142857142 50,85.65714285714286 19.12000845934345,67.82857142857144 19.12000845934344,32.17142857142858 49.99999999999999,14.342857142857142 80.87999154065656,32.17142857142858" fill="hsl(124.28571428571429, 66.42857142857143%, 55%)" />
    <polygon points="75.5353776201583,64.74285714285715 50,79.4857142857143 24.464622379841696,64.74285714285716 24.46462237984169,35.25714285714287 49.99999999999999,20.514285714285712 75.53537762015831,35.25714285714287" fill="hsl(116.42857142857143, 64.64285714285714%, 52.5%)" />
    <polygon points="70.19076369966007,61.65714285714286 50,73.31428571428572 29.809236300339947,61.657142857142865 29.80923630033994,38.34285714285715 49.99999999999999,26.685714285714283 70.19076369966007,38.34285714285715" fill="hsl(108.57142857142857, 62.85714285714286%, 50%)" />
    <polygon points="64.8461497791618,58.57142857142857 50,67.14285714285714 35.153850220838194,58.57142857142858 35.15385022083819,41.42857142857143 50,32.857142857142854 64.8461497791618,41.42857142857143" fill="hsl(100.71428571428572, 61.07142857142857%, 47.5%)" />
    <polygon points="59.50153585866356,55.48571428571429 50,60.971428571428575 40.49846414133645,55.48571428571429 40.49846414133644,44.51428571428572 50,39.028571428571425 59.50153585866356,44.51428571428572" fill="hsl(92.85714285714286, 59.285714285714285%, 45%)" />
    
</svg>