<?xml version="1.0" encoding="UTF-8"?>
<svg width="100" height="100" viewBox="0 0 100 100" xmlns="http://www.w3.org/2000/svg">
    <polygon points="91.56921938165306,74 50,98 8.430780618346951,74.00000000000001 8.430780618346937,26.000000000000014 49.99999999999999,2 91.56921938165306,26.000000000000014" fill="#4ADE80" />
    <polygon points="87.41229744348774,71.6 50,93.2 12.587702556512255,71.60000000000002 12.587702556512241,28.40000000000001 49.99999999999999,6.799999999999997 87.41229744348776,28.400000000000013" fill="hsl(132.14285714285714, 68.21428571428571%, 57.5%)" />
    <polygon points="83.25537550532245,69.2 50,88.4 16.74462449467756,69.20000000000002 16.744624494677545,30.800000000000008 49.99999999999999,11.599999999999994 83.25537550532246,30.80000000000001" fill="hsl(124.28571428571429, 66.42857142857143%, 55%)" />
    <polygon points="79.09845356715715,66.8 50,83.60000000000001 20.90154643284286,66.80000000000001 20.90154643284285,33.2 49.99999999999999,16.39999999999999 79.09845356715715,33.2" fill="hsl(116.42857142857143, 64.64285714285714%, 52.5%)" />
    <polygon points="74.94153162899184,64.4 50,78.80000000000001 25.058468371008168,64.4 25.058468371008157,35.60000000000001 49.99999999999999,21.199999999999996 74.94153162899184,35.60000000000001" fill="hsl(108.57142857142857, 62.85714285714286%, 50%)" />
    <polygon points="70.78460969082653,62 50,74 29.215390309173472,62.000000000000014 29.215390309173465,38.00000000000001 49.99999999999999,25.999999999999996 70.78460969082653,38.00000000000001" fill="hsl(100.71428571428572, 61.07142857142857%, 47.5%)" />
    <polygon points="66.62768775266122,59.6 50,69.2 33.37231224733878,59.60000000000001 33.37231224733877,40.400000000000006 50,30.799999999999997 66.62768775266123,40.400000000000006" fill="hsl(92.85714285714286, 59.285714285714285%, 45%)" />
    <polygon points="62.47076581449592,57.2 50,64.4 37.52923418550408,57.2 37.52923418550408,42.800000000000004 50,35.599999999999994 62.47076581449592,42.800000000000004" fill="hsl(85, 57.5%, 42.5%)" />
    <polygon points="58.31384387633061,54.8 50,59.6 41.68615612366939,54.800000000000004 41.686156123669384,45.2 50,40.4 58.313843876330616,45.2" fill="hsl(77.14285714285714, 55.714285714285715%, 40%)" />
    
</svg>