<?xml version="1.0" encoding="UTF-8"?>
<svg width="100" height="100" viewBox="0 0 100 100" xmlns="http://www.w3.org/2000/svg">
    <polygon points="91.56921938165306,74 50,98 8.430780618346951,74.00000000000001 8.430780618346937,26.000000000000014 49.99999999999999,2 91.56921938165306,26.000000000000014" fill="#4ADE80" />
    <polygon points="87.82798963730428,71.84 50,93.68 12.172010362695723,71.84000000000002 12.172010362695708,28.160000000000007 49.99999999999999,6.319999999999993 87.82798963730428,28.16000000000001" fill="hsl(132.14285714285714, 68.21428571428571%, 57.5%)" />
    <polygon points="84.08675989295551,69.67999999999999 50,89.36 15.913240107044501,69.68 15.913240107044487,30.32000000000001 49.99999999999999,10.64 84.08675989295551,30.320000000000014" fill="hsl(124.28571428571429, 66.42857142857143%, 55%)" />
    <polygon points="80.34553014860674,67.52 50,85.04 19.65446985139327,67.52000000000001 19.65446985139326,32.480000000000004 49.99999999999999,14.959999999999994 80.34553014860674,32.480000000000004" fill="hsl(116.42857142857143, 64.64285714285714%, 52.5%)" />
    <polygon points="76.60430040425796,65.36 50,80.72 23.395699595742048,65.36000000000001 23.395699595742038,34.64000000000001 49.99999999999999,19.279999999999998 76.60430040425797,34.64000000000001" fill="hsl(108.57142857142857, 62.85714285714286%, 50%)" />
    <polygon points="72.86307065990918,63.2 50,76.4 27.136929340090823,63.20000000000001 27.136929340090813,36.800000000000004 49.99999999999999,23.599999999999998 72.86307065990918,36.80000000000001" fill="hsl(100.71428571428572, 61.07142857142857%, 47.5%)" />
    <polygon points="69.12184091556041,61.04 50,72.08 30.878159084439595,61.040000000000006 30.878159084439588,38.96000000000001 49.99999999999999,27.919999999999998 69.12184091556041,38.96000000000001" fill="hsl(92.85714285714286, 59.285714285714285%, 45%)" />
    <polygon points="65.38061117121163,58.879999999999995 50,67.76 34.619388828788374,58.88000000000001 34.61938882878837,41.120000000000005 50,32.239999999999995 65.38061117121164,41.120000000000005" fill="hsl(85, 57.5%, 42.5%)" />
    <polygon points="61.639381426862855,56.72 50,63.44 38.360618573137145,56.720000000000006 38.360618573137145,43.28 50,36.56 61.639381426862855,43.28" fill="hsl(77.14285714285714, 55.714285714285715%, 40%)" />
    <polygon points="57.89815168251408,54.56 50,59.120000000000005 42.10184831748592,54.56 42.10184831748592,45.440000000000005 50,40.879999999999995 57.89815168251408,45.440000000000005" fill="hsl(69.28571428571428, 53.92857142857143%, 37.5%)" />
    
</svg>