<?xml version="1.0" encoding="UTF-8"?>
<svg width="100" height="100" viewBox="0 0 100 100" xmlns="http://www.w3.org/2000/svg">
    <polygon points="91.56921938165306,74 50,98 8.430780618346951,74.00000000000001 8.430780618346937,26.000000000000014 49.99999999999999,2 91.56921938165306,26.000000000000014" fill="#4ADE80" />
    <polygon points="88.1681014322451,72.03636363636363 50,94.07272727272728 11.831898567754926,72.03636363636366 11.831898567754912,27.963636363636372 49.99999999999999,5.927272727272722 88.1681014322451,27.963636363636375" fill="hsl(132.14285714285714, 68.21428571428571%, 57.5%)" />
    <polygon points="84.7669834828371,70.07272727272728 50,90.14545454545456 15.233016517162895,70.07272727272729 15.23301651716288,29.927272727272733 49.99999999999999,9.854545454545445 84.76698348283712,29.927272727272737" fill="hsl(124.28571428571429, 66.42857142857143%, 55%)" />
    <polygon points="81.36586553342913,68.10909090909091 50,86.21818181818182 18.63413446657088,68.10909090909092 18.63413446657087,31.8909090909091 49.99999999999999,13.781818181818181 81.36586553342913,31.8909090909091" fill="hsl(116.42857142857143, 64.64285714285714%, 52.5%)" />
    <polygon points="77.96474758402115,66.14545454545454 50,82.2909090909091 22.035252415978853,66.14545454545456 22.035252415978842,33.85454545454546 49.99999999999999,17.709090909090904 77.96474758402115,33.85454545454546" fill="hsl(108.57142857142857, 62.85714285714286%, 50%)" />
    <polygon points="74.56362963461318,64.18181818181819 50,78.36363636363637 25.436370365386832,64.18181818181819 25.436370365386825,35.81818181818183 49.99999999999999,21.636363636363633 74.56362963461318,35.81818181818183" fill="hsl(100.71428571428572, 61.07142857142857%, 47.5%)" />
    <polygon points="71.1625116852052,62.21818181818182 50,74.43636363636364 28.837488314794808,62.21818181818183 28.8374883147948,37.78181818181819 49.99999999999999,25.56363636363636 71.1625116852052,37.78181818181819" fill="hsl(92.85714285714286, 59.285714285714285%, 45%)" />
    <polygon points="67.76139373579721,60.25454545454545 50,70.50909090909092 32.23860626420279,60.254545454545465 32.23860626420278,39.74545454545455 49.99999999999999,29.49090909090909 67.76139373579721,39.74545454545455" fill="hsl(85, 57.5%, 42.5%)" />
    <polygon points="64.36027578638924,58.29090909090909 50,66.58181818181819 35.63972421361076,58.290909090909096 35.639724213610755,41.70909090909091 50,33.418181818181814 64.36027578638924,41.70909090909091" fill="hsl(77.14285714285714, 55.714285714285715%, 40%)" />
    <polygon points="60.95915783698126,56.32727272727273 50,62.654545454545456 39.04084216301874,56.327272727272735 39.04084216301874,43.67272727272727 50,37.345454545454544 60.95915783698126,43.67272727272728" fill="hsl(69.28571428571428, 53.92857142857143%, 37.5%)" />
    <polygon points="57.55803988757329,54.36363636363636 50,58.72727272727273 42.44196011242672,54.36363636363637 42.44196011242671,45.63636363636364 50,41.27272727272727 57.55803988757329,45.63636363636364" fill="hsl(61.42857142857143, 52.14285714285714%, 35%)" />
    
</svg>