<?xml version="1.0" encoding="UTF-8"?>
<svg width="100" height="100" viewBox="0 0 100 100" xmlns="http://www.w3.org/2000/svg">
    <polygon points="91.56921938165306,74 50,98 8.430780618346951,74.00000000000001 8.430780618346937,26.000000000000014 49.99999999999999,2 91.56921938165306,26.000000000000014" fill="#4ADE80" />
    <polygon points="88.4515279280291,72.2 50,94.4 11.548472071970927,72.20000000000002 11.548472071970913,27.800000000000008 49.99999999999999,5.599999999999994 88.4515279280291,27.80000000000001" fill="hsl(132.14285714285714, 68.21428571428571%, 57.5%)" />
    <polygon points="85.3338364744051,70.39999999999999 50,90.8 14.66616352559491,70.4 14.666163525594897,29.600000000000012 49.99999999999999,9.200000000000003 85.3338364744051,29.600000000000016" fill="hsl(124.28571428571429, 66.42857142857143%, 55%)" />
    <polygon points="82.21614502078111,68.6 50,87.2 17.783854979218887,68.60000000000001 17.783854979218873,31.40000000000001 49.99999999999999,12.799999999999997 82.21614502078113,31.40000000000001" fill="hsl(116.42857142857143, 64.64285714285714%, 52.5%)" />
    <polygon points="79.09845356715714,66.8 50,83.6 20.901546432842867,66.80000000000001 20.901546432842853,33.20000000000001 49.99999999999999,16.4 79.09845356715715,33.20000000000001" fill="hsl(108.57142857142857, 62.85714285714286%, 50%)" />
    <polygon points="75.98076211353316,65 50,80 24.019237886466847,65.00000000000001 24.019237886466836,35.00000000000001 49.99999999999999,20 75.98076211353316,35.000000000000014" fill="hsl(100.71428571428572, 61.07142857142857%, 47.5%)" />
    <polygon points="72.86307065990918,63.2 50,76.4 27.136929340090823,63.20000000000001 27.136929340090813,36.800000000000004 49.99999999999999,23.599999999999998 72.86307065990918,36.80000000000001" fill="hsl(92.85714285714286, 59.285714285714285%, 45%)" />
    <polygon points="69.74537920628521,61.4 50,72.8 30.254620793714803,61.400000000000006 30.254620793714793,38.60000000000001 49.99999999999999,27.2 69.74537920628521,38.60000000000001" fill="hsl(85, 57.5%, 42.5%)" />
    <polygon points="66.62768775266122,59.6 50,69.2 33.37231224733878,59.60000000000001 33.37231224733877,40.400000000000006 50,30.799999999999997 66.62768775266123,40.400000000000006" fill="hsl(77.14285714285714, 55.714285714285715%, 40%)" />
    <polygon points="63.50999629903725,57.8 50,65.6 36.49000370096276,57.800000000000004 36.49000370096275,42.2 50,34.4 63.50999629903725,42.2" fill="hsl(69.28571428571428, 53.92857142857143%, 37.5%)" />
    <polygon points="60.392304845413264,56 50,62 39.607695154586736,56 39.607695154586736,44 50,38 60.392304845413264,44" fill="hsl(61.42857142857143, 52.14285714285714%, 35%)" />
    <polygon points="57.27461339178929,54.2 50,58.4 42.72538660821072,54.2 42.72538660821071,45.800000000000004 50,41.6 57.27461339178929,45.800000000000004" fill="hsl(53.57142857142857, 50.35714285714286%, 32.5%)" />
    
</svg>