<?xml version="1.0" encoding="UTF-8"?>
<svg width="100" height="100" viewBox="0 0 100 100" xmlns="http://www.w3.org/2000/svg">
    <polygon points="91.56921938165306,74 50,98 8.430780618346951,74.00000000000001 8.430780618346937,26.000000000000014 49.99999999999999,2 91.56921938165306,26.000000000000014" fill="#4ADE80" />
    <polygon points="88.69135034753862,72.33846153846153 50,94.67692307692307 11.308649652461398,72.33846153846156 11.308649652461384,27.661538461538473 49.99999999999999,5.3230769230769255 88.69135034753862,27.661538461538477" fill="hsl(132.14285714285714, 68.21428571428571%, 57.5%)" />
    <polygon points="85.81348131342418,70.67692307692307 50,91.35384615384616 14.18651868657583,70.67692307692309 14.186518686575816,29.32307692307693 49.99999999999999,8.646153846153837 85.81348131342418,29.323076923076933" fill="hsl(124.28571428571429, 66.42857142857143%, 55%)" />
    <polygon points="82.93561227930974,69.01538461538462 50,88.03076923076924 17.06438772069027,69.01538461538463 17.064387720690256,30.98461538461539 49.99999999999999,11.969230769230762 82.93561227930974,30.984615384615395" fill="hsl(116.42857142857143, 64.64285714285714%, 52.5%)" />
    <polygon points="80.0577432451953,67.35384615384615 50,84.70769230769231 19.942256754804717,67.35384615384616 19.942256754804703,32.64615384615385 49.99999999999999,15.292307692307688 80.0577432451953,32.64615384615385" fill="hsl(108.57142857142857, 62.85714285714286%, 50%)" />
    <polygon points="77.17987421108084,65.6923076923077 50,81.38461538461539 22.82012578891916,65.69230769230771 22.82012578891915,34.307692307692314 49.99999999999999,18.615384615384613 77.17987421108086,34.30769230769232" fill="hsl(100.71428571428572, 61.07142857142857%, 47.5%)" />
    <polygon points="74.3020051769664,64.03076923076924 50,78.06153846153846 25.6979948230336,64.03076923076924 25.69799482303359,35.969230769230776 49.99999999999999,21.938461538461535 74.30200517696642,35.969230769230776" fill="hsl(92.85714285714286, 59.285714285714285%, 45%)" />
    <polygon points="71.42413614285196,62.36923076923077 50,74.73846153846154 28.575863857148043,62.36923076923078 28.575863857148036,37.63076923076924 49.99999999999999,25.26153846153846 71.42413614285196,37.63076923076924" fill="hsl(85, 57.5%, 42.5%)" />
    <polygon points="68.54626710873752,60.707692307692305 50,71.41538461538462 31.453732891262487,60.70769230769231 31.45373289126248,39.292307692307695 49.99999999999999,28.584615384615383 68.54626710873752,39.2923076923077" fill="hsl(77.14285714285714, 55.714285714285715%, 40%)" />
    <polygon points="65.66839807462307,59.04615384615384 50,68.09230769230768 34.33160192537693,59.04615384615385 34.33160192537692,40.95384615384616 50,31.907692307692308 65.66839807462307,40.95384615384616" fill="hsl(69.28571428571428, 53.92857142857143%, 37.5%)" />
    <polygon points="62.79052904050863,57.38461538461539 50,64.76923076923077 37.20947095949137,57.38461538461539 37.20947095949136,42.61538461538462 50,35.230769230769226 62.79052904050864,42.61538461538462" fill="hsl(61.42857142857143, 52.14285714285714%, 35%)" />
    <polygon points="59.91266000639419,55.723076923076924 50,61.44615384615385 40.08733999360581,55.72307692307693 40.08733999360581,44.27692307692308 50,38.55384615384615 59.91266000639419,44.27692307692308" fill="hsl(53.57142857142857, 50.35714285714286%, 32.5%)" />
    <polygon points="57.03479097227975,54.06153846153846 50,58.12307692307692 42.96520902772025,54.06153846153846 42.96520902772025,45.93846153846154 50,41.87692307692308 57.03479097227975,45.93846153846154" fill="hsl(45.71428571428572, 48.57142857142857%, 30%)" />
    
</svg>