<?xml version="1.0" encoding="UTF-8"?>
<svg width="100" height="100" viewBox="0 0 100 100" xmlns="http://www.w3.org/2000/svg">
    <polygon points="91.56921938165306,74 50,98 8.430780618346951,74.00000000000001 8.430780618346937,26.000000000000014 49.99999999999999,2 91.56921938165306,26.000000000000014" fill="#4ADE80" />
    <polygon points="89.07506621875388,72.56 50,95.12 10.924933781246132,72.56000000000002 10.924933781246118,27.440000000000012 49.99999999999999,4.8799999999999955 89.07506621875388,27.440000000000012" fill="hsl(132.14285714285714, 68.21428571428571%, 57.5%)" />
    <polygon points="86.5809130558547,71.12 50,92.24000000000001 13.419086944145313,71.12000000000002 13.419086944145299,28.880000000000006 49.99999999999999,7.759999999999991 86.5809130558547,28.88000000000001" fill="hsl(124.28571428571429, 66.42857142857143%, 55%)" />
    <polygon points="84.08675989295551,69.67999999999999 50,89.36 15.913240107044501,69.68 15.913240107044487,30.32000000000001 49.99999999999999,10.64 84.08675989295551,30.320000000000014" fill="hsl(116.42857142857143, 64.64285714285714%, 52.5%)" />
    <polygon points="81.59260673005633,68.24 50,86.48 18.40739326994368,68.24000000000001 18.407393269943668,31.76000000000001 49.99999999999999,13.519999999999996 81.59260673005633,31.76000000000001" fill="hsl(108.57142857142857, 62.85714285714286%, 50%)" />
    <polygon points="79.09845356715715,66.8 50,83.60000000000001 20.90154643284286,66.80000000000001 20.90154643284285,33.2 49.99999999999999,16.39999999999999 79.09845356715715,33.2" fill="hsl(100.71428571428572, 61.07142857142857%, 47.5%)" />
    <polygon points="76.60430040425796,65.36 50,80.72 23.395699595742048,65.36000000000001 23.395699595742038,34.64000000000001 49.99999999999999,19.279999999999998 76.60430040425797,34.64000000000001" fill="hsl(92.85714285714286, 59.285714285714285%, 45%)" />
    <polygon points="74.11014724135877,63.92 50,77.84 25.88985275864123,63.92000000000001 25.88985275864122,36.080000000000005 49.99999999999999,22.159999999999997 74.11014724135879,36.080000000000005" fill="hsl(85, 57.5%, 42.5%)" />
    <polygon points="71.6159940784596,62.480000000000004 50,74.96000000000001 28.38400592154041,62.48000000000001 28.384005921540403,37.52 49.99999999999999,25.039999999999996 71.6159940784596,37.52000000000001" fill="hsl(77.14285714285714, 55.714285714285715%, 40%)" />
    <polygon points="69.12184091556041,61.04 50,72.08 30.878159084439595,61.040000000000006 30.878159084439588,38.96000000000001 49.99999999999999,27.919999999999998 69.12184091556041,38.96000000000001" fill="hsl(69.28571428571428, 53.92857142857143%, 37.5%)" />
    <polygon points="66.62768775266122,59.6 50,69.2 33.37231224733878,59.60000000000001 33.37231224733877,40.400000000000006 50,30.799999999999997 66.62768775266123,40.400000000000006" fill="hsl(61.42857142857143, 52.14285714285714%, 35%)" />
    <polygon points="64.13353458976204,58.16 50,66.32 35.866465410237964,58.160000000000004 35.86646541023796,41.84 50,33.68 64.13353458976204,41.84" fill="hsl(53.57142857142857, 50.35714285714286%, 32.5%)" />
    <polygon points="61.639381426862855,56.72 50,63.44 38.360618573137145,56.720000000000006 38.360618573137145,43.28 50,36.56 61.639381426862855,43.28" fill="hsl(45.71428571428572, 48.57142857142857%, 30%)" />
    <polygon points="59.14522826396367,55.28 50,60.56 40.85477173603633,55.28 40.85477173603633,44.72 50,39.44 59.14522826396367,44.72" fill="hsl(37.85714285714285, 46.785714285714285%, 27.5%)" />
    <polygon points="56.65107510106449,53.84 50,57.68 43.34892489893551,53.84 43.34892489893551,46.160000000000004 50,42.32 56.65107510106449,46.160000000000004" fill="hsl(30, 45%, 25%)" />
    
</svg>