<?xml version="1.0" encoding="UTF-8"?>
<svg xmlns="http://www.w3.org/2000/svg" style="display: none;">
    <symbol id="tile-0" viewBox="0 0 100 100">
        <polygon points="91.56921938165306,74 50,98 8.430780618346951,74.00000000000001 8.430780618346937,26.000000000000014 49.99999999999999,2 91.56921938165306,26.000000000000014" fill="#FCD34D" />
    </symbol>
    <symbol id="tile-1" viewBox="0 0 100 100">
        <polygon points="91.56921938165306,74 50,98 8.430780618346951,74.00000000000001 8.430780618346937,26.000000000000014 49.99999999999999,2 91.56921938165306,26.000000000000014" fill="#4ADE80" />
        
    </symbol>
    <symbol id="tile-2" viewBox="0 0 100 100">
        <polygon points="91.56921938165306,74 50,98 8.430780618346951,74.00000000000001 8.430780618346937,26.000000000000014 49.99999999999999,2 91.56921938165306,26.000000000000014" fill="#4ADE80" />
        <polygon points="72.86307065990918,63.2 50,76.4 27.136929340090823,63.20000000000001 27.136929340090813,36.800000000000004 49.99999999999999,23.599999999999998 72.86307065990918,36.80000000000001" fill="hsl(132.14285714285714, 68.21428571428571%, 57.5%)" />
        
    </symbol>
    <symbol id="tile-3" viewBox="0 0 100 100">
        <polygon points="91.56921938165306,74 50,98 8.430780618346951,74.00000000000001 8.430780618346937,26.000000000000014 49.99999999999999,2 91.56921938165306,26.000000000000014" fill="#4ADE80" />
        <polygon points="79.09845356715714,66.8 50,83.6 20.901546432842867,66.80000000000001 20.901546432842853,33.20000000000001 49.99999999999999,16.4 79.09845356715715,33.20000000000001" fill="hsl(132.14285714285714, 68.21428571428571%, 57.5%)" />
        <polygon points="66.62768775266122,59.6 50,69.2 33.37231224733878,59.60000000000001 33.37231224733877,40.400000000000006 50,30.799999999999997 66.62768775266123,40.400000000000006" fill="hsl(124.28571428571429, 66.42857142857143%, 55%)" />
        
    </symbol>
    <symbol id="tile-4" viewBox="0 0 100 100">
        <polygon points="91.56921938165306,74 50,98 8.430780618346951,74.00000000000001 8.430780618346937,26.000000000000014 49.99999999999999,2 91.56921938165306,26.000000000000014" fill="#4ADE80" />
        <polygon points="82.21614502078111,68.6 50,87.2 17.783854979218887,68.60000000000001 17.783854979218873,31.40000000000001 49.99999999999999,12.799999999999997 82.21614502078113,31.40000000000001" fill="hsl(132.14285714285714, 68.21428571428571%, 57.5%)" />
        <polygon points="72.86307065990918,63.2 50,76.4 27.136929340090823,63.20000000000001 27.136929340090813,36.800000000000004 49.99999999999999,23.599999999999998 72.86307065990918,36.80000000000001" fill="hsl(124.28571428571429, 66.42857142857143%, 55%)" />
        <polygon points="63.50999629903725,57.8 50,65.6 36.49000370096276,57.800000000000004 36.49000370096275,42.2 50,34.4 63.50999629903725,42.2" fill="hsl(116.42857142857143, 64.64285714285714%, 52.5%)" />
        
    </symbol>
    <symbol id="tile-5" viewBox="0 0 100 100">
        <polygon points="91.56921938165306,74 50,98 8.430780618346951,74.00000000000001 8.430780618346937,26.000000000000014 49.99999999999999,2 91.56921938165306,26.000000000000014" fill="#4ADE80" />
        <polygon points="84.08675989295551,69.67999999999999 50,89.36 15.913240107044501,69.68 15.913240107044487,30.32000000000001 49.99999999999999,10.64 84.08675989295551,30.320000000000014" fill="hsl(132.14285714285714, 68.21428571428571%, 57.5%)" />
        <polygon points="76.60430040425796,65.36 50,80.72 23.395699595742048,65.36000000000001 23.395699595742038,34.64000000000001 49.99999999999999,19.279999999999998 76.60430040425797,34.64000000000001" fill="hsl(124.28571428571429, 66.42857142857143%, 55%)" />
        <polygon points="69.12184091556041,61.04 50,72.08 30.878159084439595,61.040000000000006 30.878159084439588,38.96000000000001 49.99999999999999,27.919999999999998 69.12184091556041,38.96000000000001" fill="hsl(116.42857142857143, 64.64285714285714%, 52.5%)" />
        <polygon points="61.639381426862855,56.72 50,63.44 38.360618573137145,56.720000000000006 38.360618573137145,43.28 50,36.56 61.639381426862855,43.28" fill="hsl(108.57142857142857, 62.85714285714286%, 50%)" />
        
    </symbol>
    <symbol id="tile-6" viewBox="0 0 100 100">
        <polygon points="91.56921938165306,74 50,98 8.430780618346951,74.00000000000001 8.430780618346937,26.000000000000014 49.99999999999999,2 91.56921938165306,26.000000000000014" fill="#4ADE80" />
        <polygon points="85.3338364744051,70.39999999999999 50,90.8 14.66616352559491,70.4 14.666163525594897,29.600000000000012 49.99999999999999,9.200000000000003 85.3338364744051,29.600000000000016" fill="hsl(132.14285714285714, 68.21428571428571%, 57.5%)" />
        <polygon points="79.09845356715714,66.8 50,83.6 20.901546432842867,66.80000000000001 20.901546432842853,33.20000000000001 49.99999999999999,16.4 79.09845356715715,33.20000000000001" fill="hsl(124.28571428571429, 66.42857142857143%, 55%)" />
        <polygon points="72.86307065990918,63.2 50,76.4 27.136929340090823,63.20000000000001 27.136929340090813,36.800000000000004 49.99999999999999,23.599999999999998 72.86307065990918,36.80000000000001" fill="hsl(116.42857142857143, 64.64285714285714%, 52.5%)" />
        <polygon points="66.62768775266122,59.6 50,69.2 33.37231224733878,59.60000000000001 33.37231224733877,40.400000000000006 50,30.799999999999997 66.62768775266123,40.400000000000006" fill="hsl(108.57142857142857, 62.85714285714286%, 50%)" />
        <polygon points="60.392304845413264,56 50,62 39.607695154586736,56 39.607695154586736,44 50,38 60.392304845413264,44" fill="hsl(100.71428571428572, 61.07142857142857%, 47.5%)" />
        
    </symbol>
    <symbol id="tile-7" viewBox="0 0 100 100">
        <polygon points="91.56921938165306,74 50,98 8.430780618346951,74.00000000000001 8.430780618346937,26.000000000000014 49.99999999999999,2 91.56921938165306,26.000000000000014" fill="#4ADE80" />
        <polygon points="86.22460546115482,70.91428571428571 50,91.82857142857144 13.775394538845198,70.91428571428574 13.775394538845184,29.085714285714293 49.99999999999999,8.171428571428564 86.22460546115482,29.085714285714296" fill="hsl(132.14285714285714, 68.21428571428571%, 57.5%)" />
        <polygon points="80.87999154065656,67.82857142857142 50,85.65714285714286 19.12000845934345,67.82857142857144 19.12000845934344,32.17142857142858 49.99999999999999,14.342857142857142 80.87999154065656,32.17142857142858" fill="hsl(124.28571428571429, 66.42857142857143%, 55%)" />
        <polygon points="75.5353776201583,64.74285714285715 50,79.4857142857143 24.464622379841696,64.74285714285716 24.46462237984169,35.25714285714287 49.99999999999999,20.514285714285712 75.53537762015831,35.25714285714287" fill="hsl(116.42857142857143, 64.64285714285714%, 52.5%)" />
        <polygon points="70.19076369966007,61.65714285714286 50,73.31428571428572 29.809236300339947,61.657142857142865 29.80923630033994,38.34285714285715 49.99999999999999,26.685714285714283 70.19076369966007,38.34285714285715" fill="hsl(108.57142857142857, 62.85714285714286%, 50%)" />
        <polygon points="64.8461497791618,58.57142857142857 50,67.14285714285714 35.153850220838194,58.57142857142858 35.15385022083819,41.42857142857143 50,32.857142857142854 64.8461497791618,41.42857142857143" fill="hsl(100.71428571428572, 61.07142857142857%, 47.5%)" />
        <polygon points="59.50153585866356,55.48571428571429 50,60.971428571428575 40.49846414133645,55.48571428571429 40.49846414133644,44.51428571428572 50,39.028571428571425 59.50153585866356,44.51428571428572" fill="hsl(92.85714285714286, 59.285714285714285%, 45%)" />
        
    </symbol>
    <symbol id="tile-8" viewBox="0 0 100 100">
        <polygon points="91.56921938165306,74 50,98 8.430780618346951,74.00000000000001 8.430780618346937,26.000000000000014 49.99999999999999,2 91.56921938165306,26.000000000000014" fill="#4ADE80" />
        <polygon points="86.8926822012171,71.3 50,92.60000000000001 13.107317798782915,71.30000000000001 13.107317798782901,28.700000000000006 49.99999999999999,7.3999999999999915 86.8926822012171,28.70000000000001" fill="hsl(132.14285714285714, 68.21428571428571%, 57.5%)" />
        <polygon points="82.21614502078111,68.6 50,87.2 17.783854979218887,68.60000000000001 17.783854979218873,31.40000000000001 49.99999999999999,12.799999999999997 82.21614502078113,31.40000000000001" fill="hsl(124.28571428571429, 66.42857142857143%, 55%)" />
        <polygon points="77.53960784034516,65.9 50,81.8 22.460392159654855,65.9 22.460392159654845,34.10000000000001 49.99999999999999,18.2 77.53960784034516,34.10000000000001" fill="hsl(116.42857142857143, 64.64285714285714%, 52.5%)" />
        <polygon points="72.86307065990918,63.2 50,76.4 27.136929340090823,63.20000000000001 27.136929340090813,36.800000000000004 49.99999999999999,23.599999999999998 72.86307065990918,36.80000000000001" fill="hsl(108.57142857142857, 62.85714285714286%, 50%)" />
        <polygon points="68.18653347947321,60.5 50,71 31.813466520526788,60.50000000000001 31.81346652052678,39.5 49.99999999999999,28.999999999999996 68.18653347947321,39.50000000000001" fill="hsl(100.71428571428572, 61.07142857142857%, 47.5%)" />
        <polygon points="63.50999629903725,57.8 50,65.6 36.49000370096276,57.800000000000004 36.49000370096275,42.2 50,34.4 63.50999629903725,42.2" fill="hsl(92.85714285714286, 59.285714285714285%, 45%)" />
        <polygon points="58.833459118601276,55.1 50,60.2 41.166540881398724,55.1 41.166540881398724,44.900000000000006 50,39.8 58.833459118601276,44.900000000000006" fill="hsl(85, 57.5%, 42.5%)" />
        
    </symbol>
    <symbol id="tile-9" viewBox="0 0 100 100">
        <polygon points="91.56921938165306,74 50,98 8.430780618346951,74.00000000000001 8.430780618346937,26.000000000000014 49.99999999999999,2 91.56921938165306,26.000000000000014" fill="#4ADE80" />
        <polygon points="87.41229744348774,71.6 50,93.2 12.587702556512255,71.60000000000002 12.587702556512241,28.40000000000001 49.99999999999999,6.799999999999997 87.41229744348776,28.400000000000013" fill="hsl(132.14285714285714, 68.21428571428571%, 57.5%)" />
        <polygon points="83.25537550532245,69.2 50,88.4 16.74462449467756,69.20000000000002 16.744624494677545,30.800000000000008 49.99999999999999,11.599999999999994 83.25537550532246,30.80000000000001" fill="hsl(124.28571428571429, 66.42857142857143%, 55%)" />
        <polygon points="79.09845356715715,66.8 50,83.60000000000001 20.90154643284286,66.80000000000001 20.90154643284285,33.2 49.99999999999999,16.39999999999999 79.09845356715715,33.2" fill="hsl(116.42857142857143, 64.64285714285714%, 52.5%)" />
        <polygon points="74.94153162899184,64.4 50,78.80000000000001 25.058468371008168,64.4 25.058468371008157,35.60000000000001 49.99999999999999,21.199999999999996 74.94153162899184,35.60000000000001" fill="hsl(108.57142857142857, 62.85714285714286%, 50%)" />
        <polygon points="70.78460969082653,62 50,74 29.215390309173472,62.000000000000014 29.215390309173465,38.00000000000001 49.99999999999999,25.999999999999996 70.78460969082653,38.00000000000001" fill="hsl(100.71428571428572, 61.07142857142857%, 47.5%)" />
        <polygon points="66.62768775266122,59.6 50,69.2 33.37231224733878,59.60000000000001 33.37231224733877,40.400000000000006 50,30.799999999999997 66.62768775266123,40.400000000000006" fill="hsl(92.85714285714286, 59.285714285714285%, 45%)" />
        <polygon points="62.47076581449592,57.2 50,64.4 37.52923418550408,57.2 37.52923418550408,42.800000000000004 50,35.599999999999994 62.47076581449592,42.800000000000004" fill="hsl(85, 57.5%, 42.5%)" />
        <polygon points="58.31384387633061,54.8 50,59.6 41.68615612366939,54.800000000000004 41.686156123669384,45.2 50,40.4 58.313843876330616,45.2" fill="hsl(77.14285714285714, 55.714285714285715%, 40%)" />
        
    </symbol>
    <symbol id="tile-a" viewBox="0 0 100 100">
        <polygon points="91.56921938165306,74 50,98 8.430780618346951,74.00000000000001 8.430780618346937,26.000000000000014 49.99999999999999,2 91.56921938165306,26.000000000000014" fill="#4ADE80" />
        <polygon points="87.82798963730428,71.84 50,93.68 12.172010362695723,71.84000000000002 12.172010362695708,28.160000000000007 49.99999999999999,6.319999999999993 87.82798963730428,28.16000000000001" fill="hsl(132.14285714285714, 68.21428571428571%, 57.5%)" />
        <polygon points="84.08675989295551,69.67999999999999 50,89.36 15.913240107044501,69.68 15.913240107044487,30.32000000000001 49.99999999999999,10.64 84.08675989295551,30.320000000000014" fill="hsl(124.28571428571429, 66.42857142857143%, 55%)" />
        <polygon points="80.34553014860674,67.52 50,85.04 19.65446985139327,67.52000000000001 19.65446985139326,32.480000000000004 49.99999999999999,14.959999999999994 80.34553014860674,32.480000000000004" fill="hsl(116.42857142857143, 64.64285714285714%, 52.5%)" />
        <polygon points="76.60430040425796,65.36 50,80.72 23.395699595742048,65.36000000000001 23.395699595742038,34.64000000000001 49.99999999999999,19.279999999999998 76.60430040425797,34.64000000000001" fill="hsl(108.57142857142857, 62.85714285714286%, 50%)" />
        <polygon points="72.86307065990918,63.2 50,76.4 27.136929340090823,63.20000000000001 27.136929340090813,36.800000000000004 49.99999999999999,23.599999999999998 72.86307065990918,36.80000000000001" fill="hsl(100.71428571428572, 61.07142857142857%, 47.5%)" />
        <polygon points="69.12184091556041,61.04 50,72.08 30.878159084439595,61.040000000000006 30.878159084439588,38.96000000000001 49.99999999999999,27.919999999999998 69.12184091556041,38.96000000000001" fill="hsl(92.85714285714286, 59.285714285714285%, 45%)" />
        <polygon points="65.38061117121163,58.879999999999995 50,67.76 34.619388828788374,58.88000000000001 34.61938882878837,41.120000000000005 50,32.239999999999995 65.38061117121164,41.120000000000005" fill="hsl(85, 57.5%, 42.5%)" />
        <polygon points="61.639381426862855,56.72 50,63.44 38.360618573137145,56.720000000000006 38.360618573137145,43.28 50,36.56 61.639381426862855,43.28" fill="hsl(77.14285714285714, 55.714285714285715%, 40%)" />
        <polygon points="57.89815168251408,54.56 50,59.120000000000005 42.10184831748592,54.56 42.10184831748592,45.440000000000005 50,40.879999999999995 57.89815168251408,45.440000000000005" fill="hsl(69.28571428571428, 53.92857142857143%, 37.5%)" />
        
    </symbol>
    <symbol id="tile-b" viewBox="0 0 100 100">
        <polygon points="91.56921938165306,74 50,98 8.430780618346951,74.00000000000001 8.430780618346937,26.000000000000014 49.99999999999999,2 91.56921938165306,26.000000000000014" fill="#4ADE80" />
        <polygon points="88.1681014322451,72.03636363636363 50,94.07272727272728 11.831898567754926,72.03636363636366 11.831898567754912,27.963636363636372 49.99999999999999,5.927272727272722 88.1681014322451,27.963636363636375" fill="hsl(132.14285714285714, 68.21428571428571%, 57.5%)" />
        <polygon points="84.7669834828371,70.07272727272728 50,90.14545454545456 15.233016517162895,70.07272727272729 15.23301651716288,29.927272727272733 49.99999999999999,9.854545454545445 84.76698348283712,29.927272727272737" fill="hsl(124.28571428571429, 66.42857142857143%, 55%)" />
        <polygon points="81.36586553342913,68.10909090909091 50,86.21818181818182 18.63413446657088,68.10909090909092 18.63413446657087,31.8909090909091 49.99999999999999,13.781818181818181 81.36586553342913,31.8909090909091" fill="hsl(116.42857142857143, 64.64285714285714%, 52.5%)" />
        <polygon points="77.96474758402115,66.14545454545454 50,82.2909090909091 22.035252415978853,66.14545454545456 22.035252415978842,33.85454545454546 49.99999999999999,17.709090909090904 77.96474758402115,33.85454545454546" fill="hsl(108.57142857142857, 62.85714285714286%, 50%)" />
        <polygon points="74.56362963461318,64.18181818181819 50,78.36363636363637 25.436370365386832,64.18181818181819 25.436370365386825,35.81818181818183 49.99999999999999,21.636363636363633 74.56362963461318,35.81818181818183" fill="hsl(100.71428571428572, 61.07142857142857%, 47.5%)" />
        <polygon points="71.1625116852052,62.21818181818182 50,74.43636363636364 28.837488314794808,62.21818181818183 28.8374883147948,37.78181818181819 49.99999999999999,25.56363636363636 71.1625116852052,37.78181818181819" fill="hsl(92.85714285714286, 59.285714285714285%, 45%)" />
        <polygon points="67.76139373579721,60.25454545454545 50,70.50909090909092 32.23860626420279,60.254545454545465 32.23860626420278,39.74545454545455 49.99999999999999,29.49090909090909 67.76139373579721,39.74545454545455" fill="hsl(85, 57.5%, 42.5%)" />
        <polygon points="64.36027578638924,58.29090909090909 50,66.58181818181819 35.63972421361076,58.290909090909096 35.639724213610755,41.70909090909091 50,33.418181818181814 64.36027578638924,41.70909090909091" fill="hsl(77.14285714285714, 55.714285714285715%, 40%)" />
        <polygon points="60.95915783698126,56.32727272727273 50,62.654545454545456 39.04084216301874,56.327272727272735 39.04084216301874,43.67272727272727 50,37.345454545454544 60.95915783698126,43.67272727272728" fill="hsl(69.28571428571428, 53.92857142857143%, 37.5%)" />
        <polygon points="57.55803988757329,54.36363636363636 50,58.72727272727273 42.44196011242672,54.36363636363637 42.44196011242671,45.63636363636364 50,41.27272727272727 57.55803988757329,45.63636363636364" fill="hsl(61.42857142857143, 52.14285714285714%, 35%)" />
        
    </symbol>
    <symbol id="tile-c" viewBox="0 0 100 100">
        <polygon points="91.56921938165306,74 50,98 8.430780618346951,74.00000000000001 8.430780618346937,26.000000000000014 49.99999999999999,2 91.56921938165306,26.000000000000014" fill="#4ADE80" />
        <polygon points="88.4515279280291,72.2 50,94.4 11.548472071970927,72.20000000000002 11.548472071970913,27.800000000000008 49.99999999999999,5.599999999999994 88.4515279280291,27.80000000000001" fill="hsl(132.14285714285714, 68.21428571428571%, 57.5%)" />
        <polygon points="85.3338364744051,70.39999999999999 50,90.8 14.66616352559491,70.4 14.666163525594897,29.600000000000012 49.99999999999999,9.200000000000003 85.3338364744051,29.600000000000016" fill="hsl(124.28571428571429, 66.42857142857143%, 55%)" />
        <polygon points="82.21614502078111,68.6 50,87.2 17.783854979218887,68.60000000000001 17.783854979218873,31.40000000000001 49.99999999999999,12.799999999999997 82.21614502078113,31.40000000000001" fill="hsl(116.42857142857143, 64.64285714285714%, 52.5%)" />
        <polygon points="79.09845356715714,66.8 50,83.6 20.901546432842867,66.80000000000001 20.901546432842853,33.20000000000001 49.99999999999999,16.4 79.09845356715715,33.20000000000001" fill="hsl(108.57142857142857, 62.85714285714286%, 50%)" />
        <polygon points="75.98076211353316,65 50,80 24.019237886466847,65.00000000000001 24.019237886466836,35.00000000000001 49.99999999999999,20 75.98076211353316,35.000000000000014" fill="hsl(100.71428571428572, 61.07142857142857%, 47.5%)" />
        <polygon points="72.86307065990918,63.2 50,76.4 27.136929340090823,63.20000000000001 27.136929340090813,36.800000000000004 49.99999999999999,23.599999999999998 72.86307065990918,36.80000000000001" fill="hsl(92.85714285714286, 59.285714285714285%, 45%)" />
        <polygon points="69.74537920628521,61.4 50,72.8 30.254620793714803,61.400000000000006 30.254620793714793,38.60000000000001 49.99999999999999,27.2 69.74537920628521,38.60000000000001" fill="hsl(85, 57.5%, 42.5%)" />
        <polygon points="66.62768775266122,59.6 50,69.2 33.37231224733878,59.60000000000001 33.37231224733877,40.400000000000006 50,30.799999999999997 66.62768775266123,40.400000000000006" fill="hsl(77.14285714285714, 55.714285714285715%, 40%)" />
        <polygon points="63.50999629903725,57.8 50,65.6 36.49000370096276,57.800000000000004 36.49000370096275,42.2 50,34.4 63.50999629903725,42.2" fill="hsl(69.28571428571428, 53.92857142857143%, 37.5%)" />
        <polygon points="60.392304845413264,56 50,62 39.607695154586736,56 39.607695154586736,44 50,38 60.392304845413264,44" fill="hsl(61.42857142857143, 52.14285714285714%, 35%)" />
        <polygon points="57.27461339178929,54.2 50,58.4 42.72538660821072,54.2 42.72538660821071,45.800000000000004 50,41.6 57.27461339178929,45.800000000000004" fill="hsl(53.57142857142857, 50.35714285714286%, 32.5%)" />
        
    </symbol>
    <symbol id="tile-d" viewBox="0 0 100 100">
        <polygon points="91.56921938165306,74 50,98 8.430780618346951,74.00000000000001 8.430780618346937,26.000000000000014 49.99999999999999,2 91.56921938165306,26.000000000000014" fill="#4ADE80" />
        <polygon points="88.69135034753862,72.33846153846153 50,94.67692307692307 11.308649652461398,72.33846153846156 11.308649652461384,27.661538461538473 49.99999999999999,5.3230769230769255 88.69135034753862,27.661538461538477" fill="hsl(132.14285714285714, 68.21428571428571%, 57.5%)" />
        <polygon points="85.81348131342418,70.67692307692307 50,91.35384615384616 14.18651868657583,70.67692307692309 14.186518686575816,29.32307692307693 49.99999999999999,8.646153846153837 85.81348131342418,29.323076923076933" fill="hsl(124.28571428571429, 66.42857142857143%, 55%)" />
        <polygon points="82.93561227930974,69.01538461538462 50,88.03076923076924 17.06438772069027,69.01538461538463 17.064387720690256,30.98461538461539 49.99999999999999,11.969230769230762 82.93561227930974,30.984615384615395" fill="hsl(116.42857142857143, 64.64285714285714%, 52.5%)" />
        <polygon points="80.0577432451953,67.35384615384615 50,84.70769230769231 19.942256754804717,67.35384615384616 19.942256754804703,32.64615384615385 49.99999999999999,15.292307692307688 80.0577432451953,32.64615384615385" fill="hsl(108.57142857142857, 62.85714285714286%, 50%)" />
        <polygon points="77.17987421108084,65.6923076923077 50,81.38461538461539 22.82012578891916,65.69230769230771 22.82012578891915,34.307692307692314 49.99999999999999,18.615384615384613 77.17987421108086,34.30769230769232" fill="hsl(100.71428571428572, 61.07142857142857%, 47.5%)" />
        <polygon points="74.3020051769664,64.03076923076924 50,78.06153846153846 25.6979948230336,64.03076923076924 25.69799482303359,35.969230769230776 49.99999999999999,21.938461538461535 74.30200517696642,35.969230769230776" fill="hsl(92.85714285714286, 59.285714285714285%, 45%)" />
        <polygon points="71.42413614285196,62.36923076923077 50,74.73846153846154 28.575863857148043,62.36923076923078 28.575863857148036,37.63076923076924 49.99999999999999,25.26153846153846 71.42413614285196,37.63076923076924" fill="hsl(85, 57.5%, 42.5%)" />
        <polygon points="68.54626710873752,60.707692307692305 50,71.41538461538462 31.453732891262487,60.70769230769231 31.45373289126248,39.292307692307695 49.99999999999999,28.584615384615383 68.54626710873752,39.2923076923077" fill="hsl(77.14285714285714, 55.714285714285715%, 40%)" />
        <polygon points="65.66839807462307,59.04615384615384 50,68.09230769230768 34.33160192537693,59.04615384615385 34.33160192537692,40.95384615384616 50,31.907692307692308 65.66839807462307,40.95384615384616" fill="hsl(69.28571428571428, 53.92857142857143%, 37.5%)" />
        <polygon points="62.79052904050863,57.38461538461539 50,64.76923076923077 37.20947095949137,57.38461538461539 37.20947095949136,42.61538461538462 50,35.230769230769226 62.79052904050864,42.61538461538462" fill="hsl(61.42857142857143, 52.14285714285714%, 35%)" />
        <polygon points="59.91266000639419,55.723076923076924 50,61.44615384615385 40.08733999360581,55.72307692307693 40.08733999360581,44.27692307692308 50,38.55384615384615 59.91266000639419,44.27692307692308" fill="hsl(53.57142857142857, 50.35714285714286%, 32.5%)" />
        <polygon points="57.03479097227975,54.06153846153846 50,58.12307692307692 42.96520902772025,54.06153846153846 42.96520902772025,45.93846153846154 50,41.87692307692308 57.03479097227975,45.93846153846154" fill="hsl(45.71428571428572, 48.57142857142857%, 30%)" />
        
    </symbol>
    <symbol id="tile-e" viewBox="0 0 100 100">
        <polygon points="91.56921938165306,74 50,98 8.430780618346951,74.00000000000001 8.430780618346937,26.000000000000014 49.99999999999999,2 91.56921938165306,26.000000000000014" fill="#4ADE80" />
        <polygon points="88.89691242140393,72.45714285714286 50,94.91428571428571 11.103087578596082,72.45714285714287 11.103087578596067,27.54285714285716 49.99999999999999,5.085714285714289 88.89691242140393,27.54285714285716" fill="hsl(132.14285714285714, 68.21428571428571%, 57.5%)" />
        <polygon points="86.22460546115482,70.91428571428571 50,91.82857142857144 13.775394538845198,70.91428571428574 13.775394538845184,29.085714285714293 49.99999999999999,8.171428571428564 86.22460546115482,29.085714285714296" fill="hsl(124.28571428571429, 66.42857142857143%, 55%)" />
        <polygon points="83.55229850090569,69.37142857142857 50,88.74285714285715 16.44770149909432,69.3714285714286 16.447701499094308,30.628571428571437 49.99999999999999,11.257142857142853 83.55229850090569,30.62857142857144" fill="hsl(116.42857142857143, 64.64285714285714%, 52.5%)" />
        <polygon points="80.87999154065656,67.82857142857142 50,85.65714285714286 19.12000845934345,67.82857142857144 19.12000845934344,32.17142857142858 49.99999999999999,14.342857142857142 80.87999154065656,32.17142857142858" fill="hsl(108.57142857142857, 62.85714285714286%, 50%)" />
        <polygon points="78.20768458040743,66.28571428571428 50,82.57142857142857 21.792315419592576,66.28571428571429 21.792315419592565,33.71428571428572 49.99999999999999,17.42857142857143 78.20768458040743,33.71428571428572" fill="hsl(100.71428571428572, 61.07142857142857%, 47.5%)" />
        <polygon points="75.5353776201583,64.74285714285715 50,79.4857142857143 24.464622379841696,64.74285714285716 24.46462237984169,35.25714285714287 49.99999999999999,20.514285714285712 75.53537762015831,35.25714285714287" fill="hsl(92.85714285714286, 59.285714285714285%, 45%)" />
        <polygon points="72.86307065990918,63.2 50,76.4 27.136929340090823,63.20000000000001 27.136929340090813,36.800000000000004 49.99999999999999,23.599999999999998 72.86307065990918,36.80000000000001" fill="hsl(85, 57.5%, 42.5%)" />
        <polygon points="70.19076369966007,61.65714285714286 50,73.31428571428572 29.809236300339947,61.657142857142865 29.80923630033994,38.34285714285715 49.99999999999999,26.685714285714283 70.19076369966007,38.34285714285715" fill="hsl(77.14285714285714, 55.714285714285715%, 40%)" />
        <polygon points="67.51845673941094,60.114285714285714 50,70.22857142857143 32.48154326058908,60.11428571428572 32.48154326058906,39.88571428571429 49.99999999999999,29.771428571428572 67.51845673941094,39.88571428571429" fill="hsl(69.28571428571428, 53.92857142857143%, 37.5%)" />
        <polygon points="64.8461497791618,58.57142857142857 50,67.14285714285714 35.153850220838194,58.57142857142858 35.15385022083819,41.42857142857143 50,32.857142857142854 64.8461497791618,41.42857142857143" fill="hsl(61.42857142857143, 52.14285714285714%, 35%)" />
        <polygon points="62.17384281891268,57.028571428571425 50,64.05714285714286 37.82615718108732,57.02857142857143 37.82615718108732,42.971428571428575 50,35.94285714285714 62.17384281891268,42.971428571428575" fill="hsl(53.57142857142857, 50.35714285714286%, 32.5%)" />
        <polygon points="59.50153585866356,55.48571428571429 50,60.971428571428575 40.49846414133645,55.48571428571429 40.49846414133644,44.51428571428572 50,39.028571428571425 59.50153585866356,44.51428571428572" fill="hsl(45.71428571428572, 48.57142857142857%, 30%)" />
        <polygon points="56.82922889841443,53.94285714285714 50,57.885714285714286 43.17077110158557,53.94285714285714 43.170771101585565,46.05714285714286 50,42.114285714285714 56.829228898414435,46.05714285714286" fill="hsl(37.85714285714285, 46.785714285714285%, 27.5%)" />
        
    </symbol>
    <symbol id="tile-f" viewBox="0 0 100 100">
        <polygon points="91.56921938165306,74 50,98 8.430780618346951,74.00000000000001 8.430780618346937,26.000000000000014 49.99999999999999,2 91.56921938165306,26.000000000000014" fill="#4ADE80" />
        <polygon points="89.07506621875388,72.56 50,95.12 10.924933781246132,72.56000000000002 10.924933781246118,27.440000000000012 49.99999999999999,4.8799999999999955 89.07506621875388,27.440000000000012" fill="hsl(132.14285714285714, 68.21428571428571%, 57.5%)" />
        <polygon points="86.5809130558547,71.12 50,92.24000000000001 13.419086944145313,71.12000000000002 13.419086944145299,28.880000000000006 49.99999999999999,7.759999999999991 86.5809130558547,28.88000000000001" fill="hsl(124.28571428571429, 66.42857142857143%, 55%)" />
        <polygon points="84.08675989295551,69.67999999999999 50,89.36 15.913240107044501,69.68 15.913240107044487,30.32000000000001 49.99999999999999,10.64 84.08675989295551,30.320000000000014" fill="hsl(116.42857142857143, 64.64285714285714%, 52.5%)" />
        <polygon points="81.59260673005633,68.24 50,86.48 18.40739326994368,68.24000000000001 18.407393269943668,31.76000000000001 49.99999999999999,13.519999999999996 81.59260673005633,31.76000000000001" fill="hsl(108.57142857142857, 62.85714285714286%, 50%)" />
        <polygon points="79.09845356715715,66.8 50,83.60000000000001 20.90154643284286,66.80000000000001 20.90154643284285,33.2 49.99999999999999,16.39999999999999 79.09845356715715,33.2" fill="hsl(100.71428571428572, 61.07142857142857%, 47.5%)" />
        <polygon points="76.60430040425796,65.36 50,80.72 23.395699595742048,65.36000000000001 23.395699595742038,34.64000000000001 49.99999999999999,19.279999999999998 76.60430040425797,34.64000000000001" fill="hsl(92.85714285714286, 59.285714285714285%, 45%)" />
        <polygon points="74.11014724135877,63.92 50,77.84 25.88985275864123,63.92000000000001 25.88985275864122,36.080000000000005 49.99999999999999,22.159999999999997 74.11014724135879,36.080000000000005" fill="hsl(85, 57.5%, 42.5%)" />
        <polygon points="71.6159940784596,62.480000000000004 50,74.96000000000001 28.38400592154041,62.48000000000001 28.384005921540403,37.52 49.99999999999999,25.039999999999996 71.6159940784596,37.52000000000001" fill="hsl(77.14285714285714, 55.714285714285715%, 40%)" />
        <polygon points="69.12184091556041,61.04 50,72.08 30.878159084439595,61.040000000000006 30.878159084439588,38.96000000000001 49.99999999999999,27.919999999999998 69.12184091556041,38.96000000000001" fill="hsl(69.28571428571428, 53.92857142857143%, 37.5%)" />
        <polygon points="66.62768775266122,59.6 50,69.2 33.37231224733878,59.60000000000001 33.37231224733877,40.400000000000006 50,30.799999999999997 66.62768775266123,40.400000000000006" fill="hsl(61.42857142857143, 52.14285714285714%, 35%)" />
        <polygon points="64.13353458976204,58.16 50,66.32 35.866465410237964,58.160000000000004 35.86646541023796,41.84 50,33.68 64.13353458976204,41.84" fill="hsl(53.57142857142857, 50.35714285714286%, 32.5%)" />
        <polygon points="61.639381426862855,56.72 50,63.44 38.360618573137145,56.720000000000006 38.360618573137145,43.28 50,36.56 61.639381426862855,43.28" fill="hsl(45.71428571428572, 48.57142857142857%, 30%)" />
        <polygon points="59.14522826396367,55.28 50,60.56 40.85477173603633,55.28 40.85477173603633,44.72 50,39.44 59.14522826396367,44.72" fill="hsl(37.85714285714285, 46.785714285714285%, 27.5%)" />
        <polygon points="56.65107510106449,53.84 50,57.68 43.34892489893551,53.84 43.34892489893551,46.160000000000004 50,42.32 56.65107510106449,46.160000000000004" fill="hsl(30, 45%, 25%)" />
        
    </symbol>
    
</svg>